####
#
# OBJ File Generated by Meshlab
#
####
# Object canopy.obj
#
# Vertices: 86
# Faces: 141
#
####
vn -0.001600 0.990400 0.138200
v 0.012494 1.216165 -4.204375
vn 0.017500 0.975900 0.217500
v 0.013522 1.075157 -3.441601
vn 0.470700 0.855500 0.215700
v 0.135691 1.040609 -3.441343
vn 0.449000 0.881900 0.143500
v 0.190024 1.200573 -4.204730
vn 0.000000 0.000900 -1.000000
v 0.012515 0.535730 -6.727931
vn 0.050700 0.791500 -0.609100
v 0.012515 0.640703 -6.681271
vn 0.410800 0.683300 -0.603600
v 0.070171 0.626662 -6.681990
vn -0.000900 0.936300 0.351200
v 0.013804 0.939377 -2.960276
vn -0.086400 0.924200 0.372000
v 0.013816 0.871744 -2.791797
vn 0.405400 0.836400 0.369000
v 0.047667 0.862191 -2.791488
vn 0.484400 0.803200 0.346700
v 0.079624 0.920775 -2.960148
vn -0.000600 0.878000 -0.478600
v 0.012494 0.973518 -6.197882
vn 0.000600 0.950800 -0.309900
v 0.012494 1.180242 -5.755935
vn 0.457400 0.839200 -0.294000
v 0.199814 1.127474 -5.760884
vn 0.410500 0.792300 -0.451400
v 0.170666 0.935160 -6.205070
vn -0.011900 0.999800 0.018600
v 0.012487 1.279538 -4.833103
vn 0.462000 0.886600 0.019600
v 0.226439 1.227720 -4.833772
vn -0.001200 0.959000 0.283300
v 0.013744 1.001145 -3.137003
vn 0.496100 0.822900 0.277200
v 0.108721 0.974292 -3.136875
vn -0.008100 0.819800 -0.572600
v 0.012506 0.793526 -6.481143
vn 0.365900 0.740400 -0.563900
v 0.122394 0.766558 -6.486495
vn -0.003400 0.992800 -0.119500
v 0.012490 1.258619 -5.350659
vn 0.471000 0.874400 -0.116600
v 0.220345 1.208318 -5.351644
vn 0.780100 0.502300 -0.373000
v 0.286703 0.831024 -6.216771
vn 0.713600 0.470400 -0.519100
v 0.203057 0.692976 -6.493948
vn 0.848300 0.528500 0.031800
v 0.383120 1.085976 -4.834043
vn 0.844500 0.525700 -0.102100
v 0.372582 1.070683 -5.352129
vn 0.844800 0.466500 0.262100
v 0.178254 0.900915 -3.136654
vn 0.854100 0.481900 0.195800
v 0.225126 0.946219 -3.440828
vn 0.726000 0.388600 -0.567400
v 0.112390 0.588347 -6.683076
vn 0.775000 0.519100 0.360400
v 0.072451 0.836041 -2.791399
vn 0.826300 0.514400 -0.229500
v 0.337077 0.995309 -5.765836
vn 0.850800 0.507900 0.135100
v 0.320018 1.074833 -4.204858
vn 0.824100 0.454300 0.338300
v 0.127816 0.869931 -2.959965
vn 0.991900 0.020400 -0.125500
v 0.387455 0.822740 -5.768526
vn 0.971300 0.008600 -0.237500
v 0.329387 0.690512 -6.223584
vn 0.992700 0.002700 0.120400
v 0.367620 0.903386 -4.204963
vn 0.998900 0.006100 0.046100
v 0.440529 0.892594 -4.834342
vn 0.969000 0.000800 0.247100
v 0.203689 0.800671 -3.136685
vn 0.912500 -0.003400 -0.409100
v 0.232797 0.593025 -6.499615
vn 0.997800 0.015800 -0.064300
v 0.428384 0.882816 -5.352660
vn 0.987100 0.001300 0.160300
v 0.257848 0.817286 -3.440631
vn 0.875600 -0.087400 -0.475100
v 0.127847 0.536177 -6.683612
vn 0.694500 -0.690200 -0.203300
v 0.203422 0.493817 -6.500376
vn 0.833100 -0.553100 -0.001000
v 0.372786 0.655853 -5.353434
vn 0.818200 -0.574700 -0.018900
v 0.337356 0.616885 -5.768393
vn 0.813300 -0.567700 0.127700
v 0.225094 0.688370 -3.441007
vn 0.830000 -0.551000 0.086900
v 0.320083 0.732234 -4.205135
vn 0.774200 -0.629200 -0.067900
v 0.287080 0.552002 -6.221055
vn 0.829800 -0.554700 0.061600
v 0.383284 0.699438 -4.834836
vn -0.766500 -0.641200 -0.037100
v -0.261434 0.552702 -6.213491
vn -0.674500 -0.712800 -0.192500
v -0.177832 0.494612 -6.489973
vn -0.826500 -0.557900 0.074500
v -0.357662 0.699924 -4.831706
vn -0.829600 -0.558300 0.001500
v -0.347116 0.656393 -5.349017
vn -0.743100 -0.573400 -0.344900
v -0.087359 0.484220 -6.683061
vn -0.812400 -0.582900 -0.015300
v -0.311708 0.617475 -5.762863
vn -0.829800 -0.549300 0.098800
v -0.294654 0.732570 -4.203475
vn -0.987600 -0.003300 0.156800
v -0.230689 0.817295 -3.440489
vn -0.991100 -0.003800 0.133000
v -0.342048 0.903491 -4.203055
vn -0.866800 0.088100 -0.490800
v -0.102817 0.536177 -6.683612
vn -0.993500 0.015700 -0.113000
v -0.361599 0.823027 -5.762224
vn -0.972800 0.004100 -0.231700
v -0.303545 0.690930 -6.215041
vn -0.998800 0.007200 0.047800
v -0.414697 0.892764 -4.830755
vn -0.913600 0.002700 -0.406700
v -0.207058 0.593567 -6.488250
vn -0.998300 0.020300 -0.055300
v -0.402494 0.883022 -5.347609
vn -0.846600 0.464600 0.259600
v -0.150755 0.900915 -3.136656
vn -0.855300 0.479800 0.195600
v -0.198019 0.946202 -3.440757
vn -0.718900 0.468000 -0.514000
v -0.177527 0.693151 -6.484600
vn -0.648900 0.508000 -0.566400
v -0.087359 0.588347 -6.683076
vn -0.844300 0.527300 -0.095100
v -0.346920 1.070506 -5.347762
vn -0.829900 0.514900 -0.215000
v -0.311442 0.995212 -5.760417
vn -0.851600 0.503400 0.146500
v -0.294591 1.074679 -4.203205
vn -0.824500 0.453400 0.338600
v -0.100206 0.869931 -2.959965
vn -0.780400 0.498800 -0.377000
v -0.261089 0.831058 -6.209545
vn -0.849700 0.526600 0.028300
v -0.357503 1.085787 -4.830938
vn -0.444900 0.884000 0.143400
v -0.164889 1.200380 -4.203773
vn -0.451000 0.892300 0.020200
v -0.201251 1.227468 -4.831973
vn -0.485300 0.802500 0.347100
v -0.052015 0.920775 -2.960148
vn -0.498500 0.821900 0.275700
v -0.081230 0.974292 -3.136877
vn -0.413600 0.787800 -0.456300
v -0.145472 0.935044 -6.200974
vn -0.379500 0.736400 -0.560100
v -0.097215 0.766545 -6.481279
vn -0.471600 0.874200 -0.115700
v -0.195137 1.208064 -5.349113
vn -0.482800 0.848000 0.218800
v -0.108639 1.040609 -3.441351
vn -0.311100 0.737800 -0.599000
v -0.045140 0.626662 -6.681990
vn -0.551400 0.749500 0.366400
v -0.020036 0.862191 -2.791488
vn -0.459200 0.842200 -0.282500
v -0.174611 1.127266 -5.757758
# 86 vertices, 0 vertices normals

f 1//1 2//2 3//3
f 1//1 3//3 4//4
f 5//5 6//6 7//7
f 8//8 9//9 10//10
f 8//8 10//10 11//11
f 12//12 13//13 14//14
f 12//12 14//14 15//15
f 16//16 1//1 4//4
f 16//16 4//4 17//17
f 18//18 8//8 11//11
f 18//18 11//11 19//19
f 20//20 12//12 15//15
f 20//20 15//15 21//21
f 22//22 16//16 17//17
f 22//22 17//17 23//23
f 2//2 18//18 19//19
f 2//2 19//19 3//3
f 6//6 20//20 21//21
f 6//6 21//21 7//7
f 13//13 22//22 23//23
f 13//13 23//23 14//14
f 21//21 15//15 24//24
f 21//21 24//24 25//25
f 23//23 17//17 26//26
f 23//23 26//26 27//27
f 3//3 19//19 28//28
f 3//3 28//28 29//29
f 7//7 21//21 25//25
f 7//7 25//25 30//30
f 14//14 23//23 27//27
f 14//14 27//27 32//32
f 4//4 3//3 29//29
f 4//4 29//29 33//33
f 5//5 7//7 30//30
f 11//11 10//10 31//31
f 11//11 31//31 34//34
f 15//15 14//14 32//32
f 15//15 32//32 24//24
f 17//17 4//4 33//33
f 17//17 33//33 26//26
f 19//19 11//11 34//34
f 19//19 34//34 28//28
f 24//24 32//32 35//35
f 24//24 35//35 36//36
f 26//26 33//33 37//37
f 26//26 37//37 38//38
f 25//25 24//24 36//36
f 25//25 36//36 40//40
f 27//27 26//26 38//38
f 27//27 38//38 41//41
f 29//29 28//28 39//39
f 29//29 39//39 42//42
f 30//30 25//25 40//40
f 30//30 40//40 43//43
f 32//32 27//27 41//41
f 32//32 41//41 35//35
f 33//33 29//29 42//42
f 33//33 42//42 37//37
f 5//5 30//30 43//43
f 43//43 40//40 44//44
f 35//35 41//41 45//45
f 35//35 45//45 46//46
f 37//37 42//42 47//47
f 37//37 47//47 48//48
f 36//36 35//35 46//46
f 36//36 46//46 49//49
f 38//38 37//37 48//48
f 38//38 48//48 50//50
f 40//40 36//36 49//49
f 40//40 49//49 44//44
f 41//41 38//38 50//50
f 41//41 50//50 45//45
f 57//57 58//58 59//59
f 51//51 56//56 61//61
f 51//51 61//61 62//62
f 53//53 57//57 59//59
f 53//53 59//59 63//63
f 52//52 51//51 62//62
f 52//52 62//62 64//64
f 54//54 53//53 63//63
f 54//54 63//63 65//65
f 55//55 52//52 64//64
f 55//55 64//64 60//60
f 56//56 54//54 65//65
f 56//56 65//65 61//61
f 60//60 64//64 68//68
f 60//60 68//68 69//69
f 61//61 65//65 70//70
f 61//61 70//70 71//71
f 59//59 58//58 67//67
f 59//59 67//67 72//72
f 5//5 60//60 69//69
f 62//62 61//61 71//71
f 62//62 71//71 74//74
f 63//63 59//59 72//72
f 63//63 72//72 75//75
f 64//64 62//62 74//74
f 64//64 74//74 68//68
f 65//65 63//63 75//75
f 65//65 75//75 70//70
f 75//75 72//72 76//76
f 75//75 76//76 77//77
f 66//66 73//73 78//78
f 66//66 78//78 79//79
f 68//68 74//74 80//80
f 68//68 80//80 81//81
f 70//70 75//75 77//77
f 70//70 77//77 82//82
f 67//67 66//66 79//79
f 67//67 79//79 83//83
f 69//69 68//68 81//81
f 69//69 81//81 84//84
f 71//71 70//70 82//82
f 71//71 82//82 86//86
f 72//72 67//67 83//83
f 72//72 83//83 76//76
f 5//5 69//69 84//84
f 73//73 85//85 78//78
f 74//74 71//71 86//86
f 74//74 86//86 80//80
f 76//76 83//83 2//2
f 76//76 2//2 1//1
f 5//5 84//84 6//6
f 78//78 85//85 9//9
f 78//78 9//9 8//8
f 80//80 86//86 13//13
f 80//80 13//13 12//12
f 77//77 76//76 1//1
f 77//77 1//1 16//16
f 79//79 78//78 8//8
f 79//79 8//8 18//18
f 81//81 80//80 12//12
f 81//81 12//12 20//20
f 82//82 77//77 16//16
f 82//82 16//16 22//22
f 83//83 79//79 18//18
f 83//83 18//18 2//2
f 84//84 81//81 20//20
f 84//84 20//20 6//6
f 86//86 82//82 22//22
f 86//86 22//22 13//13
# 141 faces, 0 coords texture

# End of File
